<?xml version="1.0" standalone="no"?>
<!DOCTYPE svg PUBLIC "-//W3C//DTD SVG 20010904//EN"
 "http://www.w3.org/TR/2001/REC-SVG-20010904/DTD/svg10.dtd">
<svg version="1.0" xmlns="http://www.w3.org/2000/svg"
 width="400.000000pt" height="520.000000pt" viewBox="0 0 400.000000 520.000000"
 preserveAspectRatio="xMidYMid meet">

<g transform="translate(0.000000,520.000000) scale(0.100000,-0.100000)"
fill="#000000" stroke="none">
<path d="M2586 4556 c-33 -39 -36 -48 -36 -107 0 -48 6 -76 25 -113 27 -54 29
-60 17 -52 -17 10 -259 55 -361 66 -56 6 -113 15 -125 20 -11 4 -39 13 -61 18
-128 33 -272 79 -483 154 -62 22 -116 37 -120 33 -30 -31 304 -194 473 -230
38 -8 19 -20 -50 -30 -120 -17 -321 -88 -454 -161 -175 -96 -396 -318 -545
-546 -100 -153 -185 -373 -202 -518 -12 -112 -12 -403 0 -485 8 -49 17 -121
21 -160 7 -80 44 -305 51 -317 3 -4 14 -45 25 -90 41 -166 172 -393 290 -504
68 -64 243 -192 303 -223 32 -16 52 -32 48 -38 -4 -6 -37 -14 -75 -17 -64 -7
-68 -9 -81 -40 -7 -18 -30 -46 -50 -63 -34 -27 -45 -31 -133 -36 -53 -4 -98
-9 -101 -12 -3 -3 2 -56 12 -118 28 -176 10 -157 141 -157 63 0 116 -4 119 -9
5 -8 -59 -121 -118 -208 l-26 -38 305 -3 c290 -2 307 -1 345 18 37 19 42 19
76 5 41 -17 84 -20 84 -6 0 6 -13 18 -30 28 -16 9 -30 21 -30 25 0 11 73 56
148 91 57 26 70 29 125 23 34 -3 73 -7 87 -9 21 -2 29 6 51 48 14 28 27 50 30
49 2 0 19 -5 37 -12 33 -11 33 -11 17 -41 -8 -17 -15 -34 -15 -39 0 -8 66 -1
110 13 8 2 22 0 30 -5 13 -8 12 -11 -5 -24 -27 -21 -174 -96 -181 -93 -4 1
-18 -13 -32 -31 l-26 -34 59 4 c33 3 81 13 107 23 l47 19 73 -24 c71 -24 84
-25 391 -28 l319 -3 -8 23 c-4 13 -28 68 -55 122 -26 55 -46 104 -43 108 3 4
56 8 118 8 l113 0 7 61 c3 34 6 85 6 113 l0 52 -82 18 c-80 18 -85 20 -140 79
-34 36 -58 71 -58 83 0 27 -17 34 -81 34 -27 0 -49 4 -49 9 0 4 28 23 63 41
275 146 394 255 492 450 83 166 152 430 180 684 3 33 13 103 20 155 17 112 19
207 5 216 -5 3 -10 32 -10 63 0 84 -27 254 -56 362 -104 380 -389 712 -799
931 -55 29 -108 62 -118 74 -9 11 -34 53 -54 94 -33 67 -36 82 -37 163 -1 48
-2 88 -3 88 -1 0 -18 -20 -37 -44z m-1158 -1285 c11 -16 46 -56 77 -90 47 -50
53 -61 36 -61 -11 0 -36 14 -56 31 -20 18 -38 29 -42 26 -3 -3 7 -27 21 -52
l27 -45 912 -2 c502 -1 973 -2 1047 -3 l135 -2 7 -44 c3 -24 13 -84 22 -133 9
-49 16 -99 16 -112 l0 -24 -1456 0 -1455 0 5 43 c4 23 11 91 17 151 5 60 12
113 15 118 3 4 108 8 233 8 l229 0 65 70 c36 38 76 87 89 110 13 22 26 40 29
40 3 0 15 -13 27 -29z m1882 -743 c0 -23 -95 -154 -164 -225 -91 -95 -146
-130 -301 -187 -193 -70 -345 -85 -479 -45 -91 27 -303 29 -391 3 -80 -23
-211 -14 -325 21 -47 14 -110 33 -140 42 -115 34 -229 102 -314 189 -64 64
-150 189 -141 204 8 13 2255 12 2255 -2z m-2135 -498 c110 -37 308 -103 440
-145 305 -98 434 -146 564 -206 57 -27 113 -49 123 -49 24 0 228 77 608 228
335 134 474 195 516 227 18 14 35 25 38 25 9 0 -41 -136 -82 -224 -88 -187
-193 -315 -405 -496 -48 -41 -102 -83 -119 -92 -17 -10 -34 -21 -37 -26 -3 -5
-33 -14 -66 -21 -33 -7 -76 -17 -95 -22 -218 -53 -376 -67 -590 -50 -167 13
-273 31 -405 66 -52 14 -106 25 -120 25 -13 0 -29 8 -34 18 -5 10 -49 51 -97
92 -298 254 -400 402 -489 718 -6 21 -5 21 22 11 15 -6 118 -42 228 -79z"/>
<path d="M1469 2487 c-52 -35 -79 -82 -79 -137 0 -84 74 -160 154 -160 53 1
120 31 142 65 40 61 32 148 -18 202 -51 56 -141 69 -199 30z"/>
<path d="M2719 2485 c-106 -69 -105 -201 0 -272 86 -58 228 1 247 102 3 18 3
48 -1 65 -8 37 -56 95 -96 116 -42 21 -108 17 -150 -11z"/>
<path d="M2070 1502 c0 -6 31 -16 68 -22 54 -10 77 -10 106 0 21 6 35 14 32
17 -2 3 -21 0 -40 -7 -35 -11 -96 -5 -149 15 -9 4 -17 3 -17 -3z"/>
<path d="M2080 658 c-36 -16 -77 -34 -92 -41 -47 -20 -34 -37 28 -37 47 0 61
5 97 33 48 37 58 48 54 61 -6 17 -21 14 -87 -16z"/>
</g>
</svg>
